<svg id="Layer_1" data-name="Layer 1" xmlns="http://www.w3.org/2000/svg" viewBox="0 0 353.59 249.19"><defs><style>.cls-1,.cls-2{fill:#fff;}.cls-2{font-size:93.99px;font-family:Gotham-Bold, Gotham;font-weight:700;}</style></defs><path class="cls-1" d="M213.17,82.66l0,0a3.18,3.18,0,0,0-1.41-1.8L168.69,55a3.08,3.08,0,0,0-3.23,0l-41,23.91a2.9,2.9,0,0,0-.67.53,3.53,3.53,0,0,0-1.27,2.74.57.57,0,0,0,0,.27.38.38,0,0,0,0,.16V97.11a4.29,4.29,0,0,0,1.59,3.33h0a4.15,4.15,0,0,0,3.92.67,4.45,4.45,0,0,0,2.84-4.27v-4a2.6,2.6,0,0,1,3.92-2.27l28.9,17.09a4.86,4.86,0,0,1,2.39,4.25l-.31,34.19a2.25,2.25,0,0,1-3.33,2l-5.21-2.84a3.19,3.19,0,0,0-.69-.25,3.16,3.16,0,0,0-3.8,1.86,3.42,3.42,0,0,0,1.65,4.23l12.28,6.68a2.88,2.88,0,0,0,.7.27,2.74,2.74,0,0,0,.37.08,3.13,3.13,0,0,0,2.75-.2l41.35-23.56a3.23,3.23,0,0,0,1.65-2.83l.06-47.33A3.35,3.35,0,0,0,213.17,82.66Zm-41.68,18.27L141.79,84.4a2.84,2.84,0,0,1-.08-5L165.58,65a3.23,3.23,0,0,1,3.06,0L198.15,82.4a2.83,2.83,0,0,1,0,5L174.51,101A3.17,3.17,0,0,1,171.49,100.93ZM206,126.8a2.92,2.92,0,0,1-1.43,2.5l-25,14.24a2.84,2.84,0,0,1-4.21-2.53l.28-28.17a2.83,2.83,0,0,1,1.41-2.45l24.75-14.45A2.84,2.84,0,0,1,206,98.42Z"/><rect class="cls-1" x="98.75" y="110.95" width="37.32" height="8.93" rx="4.47" transform="translate(-40.89 70.18) rotate(-28.56)"/><path class="cls-1" d="M110.11,140.82l0-.08a4.56,4.56,0,0,1,1.77-6.2l41.26-23a4.47,4.47,0,0,1,6.08,1.73h0a4.46,4.46,0,0,1-1.73,6.07l-41.51,23.17A4.29,4.29,0,0,1,110.11,140.82Z"/><rect class="cls-1" x="116.19" y="143.03" width="37.32" height="8.93" rx="4.47" transform="translate(-54.67 84.08) rotate(-29.06)"/><polygon class="cls-1" points="85.45 104.04 85.45 157.23 52.32 127.39 52.32 158.4 41.04 158.4 41.04 105.22 74.33 132.87 74.33 104.04 85.45 104.04"/><path class="cls-1" d="M312.55,104.64v11.43H301V159H289.83V116.07H278.24V104.64Z"/><text class="cls-2" transform="translate(221.78 157.33)">s</text></svg>